<svg xmlns="http://www.w3.org/2000/svg" xmlns:xlink="http://www.w3.org/1999/xlink" width="500" zoomAndPan="magnify" viewBox="0 0 375 374.999991" height="500" preserveAspectRatio="xMidYMid meet" version="1.0"><defs><g/><clipPath id="d6a80e3e9e"><path d="M 85.605469 170.859375 L 289.394531 170.859375 L 289.394531 206.738281 L 85.605469 206.738281 Z M 85.605469 170.859375 " clip-rule="nonzero"/></clipPath></defs><path fill="#e1ecef" d="M 374.996094 187.496094 C 374.996094 190.566406 374.917969 193.632812 374.769531 196.695312 C 374.617188 199.761719 374.390625 202.820312 374.089844 205.875 C 373.789062 208.929688 373.414062 211.972656 372.964844 215.007812 C 372.515625 218.042969 371.992188 221.066406 371.390625 224.074219 C 370.792969 227.085938 370.121094 230.078125 369.375 233.054688 C 368.628906 236.03125 367.8125 238.988281 366.921875 241.925781 C 366.03125 244.859375 365.066406 247.773438 364.035156 250.664062 C 363 253.550781 361.894531 256.414062 360.722656 259.25 C 359.546875 262.085938 358.304688 264.886719 356.992188 267.664062 C 355.679688 270.4375 354.300781 273.175781 352.855469 275.882812 C 351.410156 278.589844 349.894531 281.257812 348.320312 283.890625 C 346.742188 286.523438 345.101562 289.113281 343.394531 291.664062 C 341.691406 294.214844 339.925781 296.722656 338.097656 299.1875 C 336.269531 301.652344 334.382812 304.070312 332.433594 306.445312 C 330.488281 308.816406 328.484375 311.140625 326.421875 313.414062 C 324.363281 315.6875 322.246094 317.90625 320.078125 320.078125 C 317.90625 322.246094 315.6875 324.363281 313.414062 326.421875 C 311.140625 328.484375 308.816406 330.488281 306.445312 332.433594 C 304.070312 334.382812 301.652344 336.269531 299.1875 338.097656 C 296.722656 339.925781 294.214844 341.691406 291.664062 343.394531 C 289.113281 345.101562 286.523438 346.742188 283.890625 348.320312 C 281.257812 349.894531 278.589844 351.410156 275.882812 352.855469 C 273.175781 354.300781 270.4375 355.679688 267.664062 356.992188 C 264.886719 358.304688 262.085938 359.546875 259.25 360.722656 C 256.414062 361.894531 253.550781 363 250.664062 364.035156 C 247.773438 365.066406 244.859375 366.03125 241.925781 366.921875 C 238.988281 367.8125 236.03125 368.628906 233.054688 369.375 C 230.078125 370.121094 227.085938 370.792969 224.074219 371.390625 C 221.066406 371.992188 218.042969 372.515625 215.007812 372.964844 C 211.972656 373.414062 208.929688 373.789062 205.875 374.089844 C 202.820312 374.390625 199.761719 374.617188 196.695312 374.769531 C 193.632812 374.917969 190.566406 374.996094 187.496094 374.996094 C 184.429688 374.996094 181.363281 374.917969 178.296875 374.769531 C 175.230469 374.617188 172.171875 374.390625 169.121094 374.089844 C 166.066406 373.789062 163.019531 373.414062 159.984375 372.964844 C 156.949219 372.515625 153.929688 371.992188 150.917969 371.390625 C 147.910156 370.792969 144.914062 370.121094 141.9375 369.375 C 138.960938 368.628906 136.007812 367.8125 133.070312 366.921875 C 130.132812 366.03125 127.21875 365.066406 124.332031 364.035156 C 121.441406 363 118.578125 361.894531 115.746094 360.722656 C 112.910156 359.546875 110.105469 358.304688 107.332031 356.992188 C 104.558594 355.679688 101.816406 354.300781 99.113281 352.855469 C 96.40625 351.410156 93.734375 349.894531 91.105469 348.320312 C 88.472656 346.742188 85.878906 345.101562 83.328125 343.394531 C 80.777344 341.691406 78.269531 339.925781 75.804688 338.097656 C 73.339844 336.269531 70.921875 334.382812 68.550781 332.433594 C 66.179688 330.488281 63.855469 328.484375 61.582031 326.421875 C 59.308594 324.363281 57.085938 322.246094 54.917969 320.078125 C 52.746094 317.90625 50.632812 315.6875 48.570312 313.414062 C 46.511719 311.140625 44.507812 308.816406 42.558594 306.445312 C 40.613281 304.070312 38.726562 301.652344 36.898438 299.1875 C 35.070312 296.722656 33.304688 294.214844 31.597656 291.664062 C 29.894531 289.113281 28.253906 286.523438 26.675781 283.890625 C 25.097656 281.257812 23.585938 278.589844 22.140625 275.882812 C 20.691406 273.175781 19.3125 270.4375 18 267.664062 C 16.691406 264.886719 15.445312 262.085938 14.273438 259.25 C 13.097656 256.414062 11.992188 253.550781 10.960938 250.664062 C 9.925781 247.773438 8.964844 244.859375 8.074219 241.925781 C 7.183594 238.988281 6.363281 236.03125 5.617188 233.054688 C 4.875 230.078125 4.203125 227.085938 3.601562 224.074219 C 3.003906 221.066406 2.480469 218.042969 2.03125 215.007812 C 1.578125 211.972656 1.203125 208.929688 0.902344 205.875 C 0.601562 202.820312 0.375 199.761719 0.226562 196.695312 C 0.0742188 193.632812 0 190.566406 0 187.496094 C 0 184.429688 0.0742188 181.363281 0.226562 178.296875 C 0.375 175.230469 0.601562 172.171875 0.902344 169.121094 C 1.203125 166.066406 1.578125 163.019531 2.03125 159.984375 C 2.480469 156.949219 3.003906 153.929688 3.601562 150.917969 C 4.203125 147.910156 4.875 144.914062 5.617188 141.9375 C 6.363281 138.960938 7.183594 136.007812 8.074219 133.070312 C 8.964844 130.132812 9.925781 127.21875 10.960938 124.332031 C 11.992188 121.441406 13.097656 118.578125 14.273438 115.746094 C 15.445312 112.910156 16.691406 110.105469 18 107.332031 C 19.3125 104.558594 20.691406 101.816406 22.140625 99.113281 C 23.585938 96.40625 25.097656 93.734375 26.675781 91.105469 C 28.253906 88.472656 29.894531 85.878906 31.597656 83.328125 C 33.304688 80.777344 35.070312 78.269531 36.898438 75.804688 C 38.726562 73.339844 40.613281 70.921875 42.558594 68.550781 C 44.507812 66.179688 46.511719 63.855469 48.570312 61.582031 C 50.632812 59.308594 52.746094 57.085938 54.917969 54.917969 C 57.085938 52.746094 59.308594 50.632812 61.582031 48.570312 C 63.855469 46.511719 66.179688 44.507812 68.550781 42.558594 C 70.921875 40.613281 73.339844 38.726562 75.804688 36.898438 C 78.269531 35.070312 80.777344 33.304688 83.328125 31.597656 C 85.878906 29.894531 88.472656 28.253906 91.105469 26.675781 C 93.734375 25.097656 96.40625 23.585938 99.113281 22.140625 C 101.816406 20.691406 104.558594 19.3125 107.332031 18 C 110.105469 16.691406 112.910156 15.445312 115.746094 14.273438 C 118.578125 13.097656 121.441406 11.992188 124.332031 10.960938 C 127.21875 9.925781 130.132812 8.964844 133.070312 8.074219 C 136.007812 7.183594 138.960938 6.363281 141.9375 5.617188 C 144.914062 4.875 147.910156 4.203125 150.917969 3.601562 C 153.929688 3.003906 156.949219 2.480469 159.984375 2.03125 C 163.019531 1.578125 166.066406 1.203125 169.121094 0.902344 C 172.171875 0.601562 175.230469 0.375 178.296875 0.226562 C 181.363281 0.0742188 184.429688 0 187.496094 0 C 190.566406 0 193.632812 0.0742188 196.695312 0.226562 C 199.761719 0.375 202.820312 0.601562 205.875 0.902344 C 208.929688 1.203125 211.972656 1.578125 215.007812 2.03125 C 218.042969 2.480469 221.066406 3.003906 224.074219 3.601562 C 227.085938 4.203125 230.078125 4.875 233.054688 5.617188 C 236.03125 6.363281 238.988281 7.183594 241.925781 8.074219 C 244.859375 8.964844 247.773438 9.925781 250.664062 10.960938 C 253.550781 11.992188 256.414062 13.097656 259.25 14.273438 C 262.085938 15.445312 264.886719 16.691406 267.664062 18 C 270.4375 19.3125 273.175781 20.691406 275.882812 22.140625 C 278.589844 23.585938 281.257812 25.097656 283.890625 26.675781 C 286.523438 28.253906 289.113281 29.894531 291.664062 31.597656 C 294.214844 33.304688 296.722656 35.070312 299.1875 36.898438 C 301.652344 38.726562 304.070312 40.613281 306.445312 42.558594 C 308.816406 44.507812 311.140625 46.511719 313.414062 48.570312 C 315.6875 50.632812 317.90625 52.746094 320.078125 54.917969 C 322.246094 57.085938 324.363281 59.308594 326.421875 61.582031 C 328.484375 63.855469 330.488281 66.179688 332.433594 68.550781 C 334.382812 70.921875 336.269531 73.339844 338.097656 75.804688 C 339.925781 78.269531 341.691406 80.777344 343.394531 83.328125 C 345.101562 85.878906 346.742188 88.472656 348.320312 91.105469 C 349.894531 93.734375 351.410156 96.40625 352.855469 99.113281 C 354.300781 101.816406 355.679688 104.558594 356.992188 107.332031 C 358.304688 110.105469 359.546875 112.910156 360.722656 115.746094 C 361.894531 118.578125 363 121.441406 364.035156 124.332031 C 365.066406 127.21875 366.03125 130.132812 366.921875 133.070312 C 367.8125 136.007812 368.628906 138.960938 369.375 141.9375 C 370.121094 144.914062 370.792969 147.910156 371.390625 150.917969 C 371.992188 153.929688 372.515625 156.949219 372.964844 159.984375 C 373.414062 163.019531 373.789062 166.066406 374.089844 169.121094 C 374.390625 172.171875 374.617188 175.230469 374.769531 178.296875 C 374.917969 181.363281 374.996094 184.429688 374.996094 187.496094 Z M 374.996094 187.496094 " fill-opacity="1" fill-rule="nonzero"/><path fill="#30525b" d="M 187.5 0 C 83.921875 0 0 83.996094 0 187.5 C 0 291.003906 83.921875 375 187.5 375 C 291.078125 375 375 291.003906 375 187.5 C 375 83.996094 291.078125 0 187.5 0 Z M 187.5 363.128906 C 90.5 363.128906 11.871094 284.5 11.871094 187.5 C 11.871094 90.5 90.5 11.871094 187.5 11.871094 C 284.5 11.871094 363.128906 90.5 363.128906 187.5 C 363.128906 284.5 284.5 363.128906 187.5 363.128906 Z M 187.5 363.128906 " fill-opacity="1" fill-rule="nonzero"/><g fill="#30525b" fill-opacity="1"><g transform="translate(60.991661, 256.866956)"><g><path d="M -0.40625 0 L -0.40625 -2 L 4.609375 -2 C 9.015625 -2 12.148438 -2.832031 14.015625 -4.5 C 15.890625 -6.175781 17.757812 -9.617188 19.625 -14.828125 L 64.109375 -143.03125 L 70.515625 -143.03125 L 118.796875 -12.21875 C 120.265625 -8.082031 121.765625 -5.34375 123.296875 -4 C 124.835938 -2.664062 127.410156 -2 131.015625 -2 L 134.21875 -2 L 134.21875 0 L 85.34375 0 L 85.34375 -2 L 91.34375 -2 C 96.425781 -2 99.832031 -2.53125 101.5625 -3.59375 C 103.300781 -4.664062 104.171875 -6.472656 104.171875 -9.015625 C 104.171875 -10.753906 103.769531 -13.023438 102.96875 -15.828125 C 102.164062 -18.628906 101.429688 -20.96875 100.765625 -22.84375 L 90.140625 -51.890625 L 34.859375 -51.890625 L 24.84375 -23.640625 C 24.3125 -21.765625 23.609375 -19.425781 22.734375 -16.625 C 21.867188 -13.820312 21.4375 -11.550781 21.4375 -9.8125 C 21.4375 -7.007812 22.535156 -5.003906 24.734375 -3.796875 C 26.941406 -2.597656 31.1875 -2 37.46875 -2 L 45.078125 -2 L 45.078125 0 Z M 35.453125 -53.890625 L 89.546875 -53.890625 L 74.125 -96.765625 C 71.988281 -102.898438 69.816406 -109.140625 67.609375 -115.484375 C 65.410156 -121.828125 63.578125 -127.40625 62.109375 -132.21875 C 60.765625 -127.675781 59.054688 -122.46875 56.984375 -116.59375 C 54.921875 -110.71875 52.953125 -104.972656 51.078125 -99.359375 Z M 35.453125 -53.890625 "/></g></g></g><g fill="#30525b" fill-opacity="1"><g transform="translate(196.806919, 256.866956)"><g><path d="M 69.515625 2 C 56.554688 2 45.769531 -1.003906 37.15625 -7.015625 C 28.539062 -13.023438 22.097656 -21.535156 17.828125 -32.546875 C 13.554688 -43.566406 11.421875 -56.488281 11.421875 -71.3125 C 11.421875 -86.269531 13.625 -99.257812 18.03125 -110.28125 C 22.4375 -121.300781 29.046875 -129.847656 37.859375 -135.921875 C 46.671875 -141.992188 57.691406 -145.03125 70.921875 -145.03125 C 84.410156 -145.03125 94.359375 -142.691406 100.765625 -138.015625 C 107.171875 -133.347656 110.375 -128.007812 110.375 -122 C 110.375 -118.257812 109.269531 -115.488281 107.0625 -113.6875 C 104.863281 -111.882812 102.097656 -110.984375 98.765625 -110.984375 C 98.628906 -122.203125 96.457031 -130.3125 92.25 -135.3125 C 88.039062 -140.320312 80.394531 -142.828125 69.3125 -142.828125 C 54.625 -142.828125 43.738281 -136.71875 36.65625 -124.5 C 29.582031 -112.28125 26.046875 -94.753906 26.046875 -71.921875 C 26.046875 -48.546875 29.617188 -30.710938 36.765625 -18.421875 C 43.910156 -6.140625 55.296875 0 70.921875 0 C 80.265625 0 87.671875 -2.164062 93.140625 -6.5 C 98.617188 -10.84375 102.5625 -17.359375 104.96875 -26.046875 C 107.90625 -25.109375 109.375 -23.171875 109.375 -20.234375 C 109.375 -17.296875 107.867188 -14.085938 104.859375 -10.609375 C 101.859375 -7.140625 97.421875 -4.171875 91.546875 -1.703125 C 85.671875 0.765625 78.328125 2 69.515625 2 Z M 69.515625 2 "/></g></g></g><g clip-path="url(#d6a80e3e9e)"><path fill="#e1ecef" d="M 85.605469 170.859375 L 289.386719 170.859375 L 289.386719 206.738281 L 85.605469 206.738281 Z M 85.605469 170.859375 " fill-opacity="1" fill-rule="nonzero"/></g><g fill="#30525b" fill-opacity="1"><g transform="translate(85.026562, 194.049993)"><g><path d="M -0.03125 0 L -0.03125 -0.15625 L 0.34375 -0.15625 C 0.675781 -0.15625 0.910156 -0.21875 1.046875 -0.34375 C 1.191406 -0.46875 1.332031 -0.722656 1.46875 -1.109375 L 4.8125 -10.734375 L 5.296875 -10.734375 L 8.90625 -0.921875 C 9.019531 -0.609375 9.132812 -0.398438 9.25 -0.296875 C 9.363281 -0.203125 9.554688 -0.15625 9.828125 -0.15625 L 10.078125 -0.15625 L 10.078125 0 L 6.40625 0 L 6.40625 -0.15625 L 6.859375 -0.15625 C 7.234375 -0.15625 7.484375 -0.191406 7.609375 -0.265625 C 7.742188 -0.347656 7.8125 -0.484375 7.8125 -0.671875 C 7.8125 -0.804688 7.78125 -0.976562 7.71875 -1.1875 C 7.664062 -1.394531 7.613281 -1.570312 7.5625 -1.71875 L 6.765625 -3.890625 L 2.609375 -3.890625 L 1.859375 -1.78125 C 1.816406 -1.632812 1.765625 -1.457031 1.703125 -1.25 C 1.640625 -1.039062 1.609375 -0.867188 1.609375 -0.734375 C 1.609375 -0.523438 1.691406 -0.375 1.859375 -0.28125 C 2.023438 -0.195312 2.34375 -0.15625 2.8125 -0.15625 L 3.375 -0.15625 L 3.375 0 Z M 2.65625 -4.046875 L 6.71875 -4.046875 L 5.5625 -7.265625 C 5.40625 -7.722656 5.242188 -8.1875 5.078125 -8.65625 C 4.910156 -9.132812 4.769531 -9.554688 4.65625 -9.921875 C 4.5625 -9.578125 4.4375 -9.1875 4.28125 -8.75 C 4.125 -8.3125 3.972656 -7.878906 3.828125 -7.453125 Z M 2.65625 -4.046875 "/></g></g></g><g fill="#30525b" fill-opacity="1"><g transform="translate(100.851494, 194.049993)"><g><path d="M 0.640625 0 L 0.640625 -0.15625 L 1.046875 -0.15625 C 1.441406 -0.15625 1.71875 -0.234375 1.875 -0.390625 C 2.03125 -0.554688 2.109375 -0.875 2.109375 -1.34375 L 2.109375 -9.421875 C 2.109375 -9.867188 2.03125 -10.171875 1.875 -10.328125 C 1.71875 -10.492188 1.441406 -10.578125 1.046875 -10.578125 L 0.640625 -10.578125 L 0.640625 -10.734375 L 4.5625 -10.734375 L 4.5625 -10.578125 L 4.171875 -10.578125 C 3.785156 -10.578125 3.515625 -10.492188 3.359375 -10.328125 C 3.203125 -10.171875 3.125 -9.859375 3.125 -9.390625 L 3.125 -0.15625 L 6.546875 -0.15625 C 6.953125 -0.15625 7.269531 -0.207031 7.5 -0.3125 C 7.726562 -0.425781 7.890625 -0.617188 7.984375 -0.890625 C 8.085938 -1.171875 8.15625 -1.550781 8.1875 -2.03125 L 8.234375 -3.15625 L 8.390625 -3.15625 L 8.28125 0 Z M 0.640625 0 "/></g></g></g><g fill="#30525b" fill-opacity="1"><g transform="translate(115.579716, 194.049993)"><g><path d="M 0.640625 0 L 0.640625 -0.15625 L 1.046875 -0.15625 C 1.441406 -0.15625 1.71875 -0.234375 1.875 -0.390625 C 2.03125 -0.554688 2.109375 -0.875 2.109375 -1.34375 L 2.109375 -9.421875 C 2.109375 -9.867188 2.03125 -10.171875 1.875 -10.328125 C 1.71875 -10.492188 1.441406 -10.578125 1.046875 -10.578125 L 0.640625 -10.578125 L 0.640625 -10.734375 L 7.78125 -10.734375 L 7.875 -8.171875 L 7.71875 -8.171875 L 7.6875 -9.03125 C 7.65625 -9.625 7.53125 -10.03125 7.3125 -10.25 C 7.101562 -10.46875 6.707031 -10.578125 6.125 -10.578125 L 3.125 -10.578125 L 3.125 -5.703125 L 6.859375 -5.703125 L 6.859375 -5.546875 L 3.125 -5.546875 L 3.125 -0.15625 L 6.546875 -0.15625 C 7.171875 -0.15625 7.59375 -0.265625 7.8125 -0.484375 C 8.03125 -0.703125 8.15625 -1.109375 8.1875 -1.703125 L 8.234375 -2.5625 L 8.390625 -2.5625 L 8.28125 0 Z M 0.640625 0 "/></g></g></g><g fill="#30525b" fill-opacity="1"><g transform="translate(130.322964, 194.049993)"><g><path d="M 0.109375 0 L 0.109375 -0.15625 L 0.53125 -0.15625 C 0.832031 -0.15625 1.066406 -0.210938 1.234375 -0.328125 C 1.410156 -0.453125 1.609375 -0.695312 1.828125 -1.0625 L 4.28125 -5.25 L 1.765625 -9.8125 C 1.578125 -10.132812 1.410156 -10.34375 1.265625 -10.4375 C 1.117188 -10.53125 0.890625 -10.578125 0.578125 -10.578125 L 0.25 -10.578125 L 0.25 -10.734375 L 3.796875 -10.734375 L 3.796875 -10.578125 L 3.53125 -10.578125 C 3.257812 -10.578125 3.070312 -10.546875 2.96875 -10.484375 C 2.875 -10.429688 2.828125 -10.335938 2.828125 -10.203125 C 2.828125 -10.003906 2.945312 -9.695312 3.1875 -9.28125 L 4.9375 -6.140625 L 6.765625 -9.25 C 6.890625 -9.46875 6.988281 -9.65625 7.0625 -9.8125 C 7.144531 -9.976562 7.1875 -10.113281 7.1875 -10.21875 C 7.1875 -10.351562 7.132812 -10.445312 7.03125 -10.5 C 6.9375 -10.550781 6.75 -10.578125 6.46875 -10.578125 L 5.8125 -10.578125 L 5.8125 -10.734375 L 8.84375 -10.734375 L 8.84375 -10.578125 L 8.484375 -10.578125 C 8.171875 -10.578125 7.929688 -10.519531 7.765625 -10.40625 C 7.597656 -10.289062 7.40625 -10.050781 7.1875 -9.6875 L 5 -5.984375 L 7.8125 -0.921875 C 7.988281 -0.609375 8.148438 -0.398438 8.296875 -0.296875 C 8.441406 -0.203125 8.675781 -0.15625 9 -0.15625 L 9.234375 -0.15625 L 9.234375 0 L 5.703125 0 L 5.703125 -0.15625 L 6.0625 -0.15625 C 6.320312 -0.15625 6.5 -0.179688 6.59375 -0.234375 C 6.695312 -0.296875 6.75 -0.394531 6.75 -0.53125 C 6.75 -0.707031 6.609375 -1.046875 6.328125 -1.546875 L 4.359375 -5.078125 L 2.375 -1.734375 C 2.175781 -1.378906 2.03125 -1.113281 1.9375 -0.9375 C 1.851562 -0.757812 1.8125 -0.617188 1.8125 -0.515625 C 1.8125 -0.378906 1.863281 -0.285156 1.96875 -0.234375 C 2.082031 -0.179688 2.28125 -0.15625 2.5625 -0.15625 L 3.421875 -0.15625 L 3.421875 0 Z M 0.109375 0 "/></g></g></g><g fill="#30525b" fill-opacity="1"><g transform="translate(145.261517, 194.049993)"><g/></g></g><g fill="#30525b" fill-opacity="1"><g transform="translate(154.280845, 194.049993)"><g><path d="M 5.21875 0.15625 C 4.25 0.15625 3.4375 -0.0664062 2.78125 -0.515625 C 2.132812 -0.972656 1.648438 -1.613281 1.328125 -2.4375 C 1.015625 -3.269531 0.859375 -4.238281 0.859375 -5.34375 C 0.859375 -6.46875 1.019531 -7.441406 1.34375 -8.265625 C 1.675781 -9.097656 2.171875 -9.738281 2.828125 -10.1875 C 3.492188 -10.644531 4.328125 -10.875 5.328125 -10.875 C 6.335938 -10.875 7.082031 -10.695312 7.5625 -10.34375 C 8.039062 -10 8.28125 -9.601562 8.28125 -9.15625 C 8.28125 -8.875 8.195312 -8.664062 8.03125 -8.53125 C 7.863281 -8.394531 7.65625 -8.328125 7.40625 -8.328125 C 7.394531 -9.171875 7.234375 -9.78125 6.921875 -10.15625 C 6.609375 -10.53125 6.035156 -10.71875 5.203125 -10.71875 C 4.097656 -10.71875 3.28125 -10.257812 2.75 -9.34375 C 2.21875 -8.425781 1.953125 -7.109375 1.953125 -5.390625 C 1.953125 -3.640625 2.21875 -2.300781 2.75 -1.375 C 3.289062 -0.457031 4.148438 0 5.328125 0 C 6.023438 0 6.578125 -0.160156 6.984375 -0.484375 C 7.398438 -0.816406 7.695312 -1.304688 7.875 -1.953125 C 8.09375 -1.878906 8.203125 -1.734375 8.203125 -1.515625 C 8.203125 -1.296875 8.085938 -1.054688 7.859375 -0.796875 C 7.640625 -0.535156 7.304688 -0.3125 6.859375 -0.125 C 6.421875 0.0625 5.875 0.15625 5.21875 0.15625 Z M 5.21875 0.15625 "/></g></g></g><g fill="#30525b" fill-opacity="1"><g transform="translate(168.708605, 194.049993)"><g><path d="M 0.65625 0 L 0.65625 -0.15625 L 1.0625 -0.15625 C 1.457031 -0.15625 1.734375 -0.234375 1.890625 -0.390625 C 2.046875 -0.554688 2.125 -0.875 2.125 -1.34375 L 2.125 -9.421875 C 2.125 -9.867188 2.046875 -10.171875 1.890625 -10.328125 C 1.734375 -10.492188 1.457031 -10.578125 1.0625 -10.578125 L 0.65625 -10.578125 L 0.65625 -10.734375 L 4.59375 -10.734375 L 4.59375 -10.578125 L 4.1875 -10.578125 C 3.789062 -10.578125 3.515625 -10.492188 3.359375 -10.328125 C 3.210938 -10.171875 3.140625 -9.859375 3.140625 -9.390625 L 3.140625 -5.6875 L 8.5625 -5.6875 L 8.5625 -9.390625 C 8.5625 -9.859375 8.484375 -10.171875 8.328125 -10.328125 C 8.179688 -10.492188 7.910156 -10.578125 7.515625 -10.578125 L 7.109375 -10.578125 L 7.109375 -10.734375 L 11.046875 -10.734375 L 11.046875 -10.578125 L 10.640625 -10.578125 C 10.253906 -10.578125 9.984375 -10.492188 9.828125 -10.328125 C 9.671875 -10.171875 9.59375 -9.867188 9.59375 -9.421875 L 9.59375 -1.34375 C 9.59375 -0.875 9.671875 -0.554688 9.828125 -0.390625 C 9.984375 -0.234375 10.253906 -0.15625 10.640625 -0.15625 L 11.046875 -0.15625 L 11.046875 0 L 7.109375 0 L 7.109375 -0.15625 L 7.515625 -0.15625 C 7.910156 -0.15625 8.179688 -0.234375 8.328125 -0.390625 C 8.484375 -0.554688 8.5625 -0.875 8.5625 -1.34375 L 8.5625 -5.53125 L 3.140625 -5.53125 L 3.140625 -1.34375 C 3.140625 -0.875 3.210938 -0.554688 3.359375 -0.390625 C 3.515625 -0.234375 3.789062 -0.15625 4.1875 -0.15625 L 4.59375 -0.15625 L 4.59375 0 Z M 0.65625 0 "/></g></g></g><g fill="#30525b" fill-opacity="1"><g transform="translate(186.035887, 194.049993)"><g><path d="M 0.640625 0 L 0.640625 -0.15625 L 1.046875 -0.15625 C 1.441406 -0.15625 1.71875 -0.234375 1.875 -0.390625 C 2.03125 -0.554688 2.109375 -0.875 2.109375 -1.34375 L 2.109375 -9.421875 C 2.109375 -9.867188 2.03125 -10.171875 1.875 -10.328125 C 1.71875 -10.492188 1.441406 -10.578125 1.046875 -10.578125 L 0.640625 -10.578125 L 0.640625 -10.734375 L 7.78125 -10.734375 L 7.875 -8.171875 L 7.71875 -8.171875 L 7.6875 -9.03125 C 7.65625 -9.625 7.53125 -10.03125 7.3125 -10.25 C 7.101562 -10.46875 6.707031 -10.578125 6.125 -10.578125 L 3.125 -10.578125 L 3.125 -5.703125 L 6.859375 -5.703125 L 6.859375 -5.546875 L 3.125 -5.546875 L 3.125 -0.15625 L 6.546875 -0.15625 C 7.171875 -0.15625 7.59375 -0.265625 7.8125 -0.484375 C 8.03125 -0.703125 8.15625 -1.109375 8.1875 -1.703125 L 8.234375 -2.5625 L 8.390625 -2.5625 L 8.28125 0 Z M 0.640625 0 "/></g></g></g><g fill="#30525b" fill-opacity="1"><g transform="translate(200.779137, 194.049993)"><g><path d="M 4.671875 0 L 1.234375 -9.8125 C 1.128906 -10.125 1.007812 -10.328125 0.875 -10.421875 C 0.75 -10.523438 0.523438 -10.578125 0.203125 -10.578125 L 0 -10.578125 L 0 -10.734375 L 3.734375 -10.734375 L 3.734375 -10.578125 L 3.171875 -10.578125 C 2.816406 -10.578125 2.578125 -10.535156 2.453125 -10.453125 C 2.335938 -10.378906 2.28125 -10.257812 2.28125 -10.09375 C 2.28125 -9.957031 2.3125 -9.78125 2.375 -9.5625 C 2.445312 -9.351562 2.507812 -9.171875 2.5625 -9.015625 L 4.375 -3.8125 C 4.5625 -3.238281 4.726562 -2.722656 4.875 -2.265625 C 5.019531 -1.816406 5.15625 -1.390625 5.28125 -0.984375 C 5.40625 -1.421875 5.539062 -1.859375 5.6875 -2.296875 C 5.832031 -2.742188 6 -3.25 6.1875 -3.8125 L 7.90625 -8.953125 C 7.945312 -9.109375 8 -9.289062 8.0625 -9.5 C 8.132812 -9.71875 8.171875 -9.898438 8.171875 -10.046875 C 8.171875 -10.242188 8.109375 -10.378906 7.984375 -10.453125 C 7.859375 -10.535156 7.617188 -10.578125 7.265625 -10.578125 L 6.46875 -10.578125 L 6.46875 -10.734375 L 9.8125 -10.734375 L 9.8125 -10.578125 L 9.359375 -10.578125 C 9.054688 -10.578125 8.835938 -10.515625 8.703125 -10.390625 C 8.566406 -10.265625 8.4375 -10.007812 8.3125 -9.625 L 5.09375 0 Z M 4.671875 0 "/></g></g></g><g fill="#30525b" fill-opacity="1"><g transform="translate(216.348674, 194.049993)"><g><path d="M 0.640625 0 L 0.640625 -0.15625 L 1.046875 -0.15625 C 1.441406 -0.15625 1.71875 -0.234375 1.875 -0.390625 C 2.03125 -0.554688 2.109375 -0.875 2.109375 -1.34375 L 2.109375 -9.421875 C 2.109375 -9.867188 2.03125 -10.171875 1.875 -10.328125 C 1.71875 -10.492188 1.441406 -10.578125 1.046875 -10.578125 L 0.640625 -10.578125 L 0.640625 -10.734375 L 4.234375 -10.734375 C 5.515625 -10.734375 6.453125 -10.503906 7.046875 -10.046875 C 7.648438 -9.597656 7.953125 -8.90625 7.953125 -7.96875 C 7.953125 -7.382812 7.835938 -6.894531 7.609375 -6.5 C 7.390625 -6.113281 7.097656 -5.804688 6.734375 -5.578125 C 6.367188 -5.347656 5.976562 -5.175781 5.5625 -5.0625 L 7.875 -1.546875 C 8.25 -0.984375 8.539062 -0.609375 8.75 -0.421875 C 8.96875 -0.242188 9.191406 -0.15625 9.421875 -0.15625 L 9.53125 -0.15625 L 9.53125 0 L 9.375 0 C 8.851562 0 8.445312 -0.03125 8.15625 -0.09375 C 7.875 -0.164062 7.632812 -0.300781 7.4375 -0.5 C 7.25 -0.695312 7.039062 -0.976562 6.8125 -1.34375 L 4.46875 -4.96875 L 3.125 -4.96875 L 3.125 -1.34375 C 3.125 -0.875 3.203125 -0.554688 3.359375 -0.390625 C 3.515625 -0.234375 3.785156 -0.15625 4.171875 -0.15625 L 4.5625 -0.15625 L 4.5625 0 Z M 3.125 -5.125 L 4.40625 -5.125 C 5.207031 -5.125 5.820312 -5.347656 6.25 -5.796875 C 6.675781 -6.242188 6.890625 -6.941406 6.890625 -7.890625 C 6.890625 -8.828125 6.695312 -9.507812 6.3125 -9.9375 C 5.925781 -10.363281 5.25 -10.578125 4.28125 -10.578125 L 3.125 -10.578125 Z M 3.125 -5.125 "/></g></g></g><g fill="#30525b" fill-opacity="1"><g transform="translate(231.407416, 194.049993)"><g><path d="M 5.375 0.15625 C 4.363281 0.15625 3.519531 -0.0664062 2.84375 -0.515625 C 2.175781 -0.972656 1.675781 -1.613281 1.34375 -2.4375 C 1.019531 -3.269531 0.859375 -4.253906 0.859375 -5.390625 C 0.859375 -6.523438 1.023438 -7.503906 1.359375 -8.328125 C 1.691406 -9.148438 2.191406 -9.78125 2.859375 -10.21875 C 3.535156 -10.664062 4.378906 -10.890625 5.390625 -10.890625 C 6.910156 -10.890625 8.039062 -10.394531 8.78125 -9.40625 C 9.53125 -8.425781 9.90625 -7.082031 9.90625 -5.375 C 9.90625 -4.269531 9.738281 -3.300781 9.40625 -2.46875 C 9.070312 -1.644531 8.570312 -1 7.90625 -0.53125 C 7.238281 -0.0703125 6.394531 0.15625 5.375 0.15625 Z M 5.375 0 C 6.582031 0 7.453125 -0.441406 7.984375 -1.328125 C 8.523438 -2.210938 8.796875 -3.5625 8.796875 -5.375 C 8.796875 -7.195312 8.53125 -8.546875 8 -9.421875 C 7.476562 -10.304688 6.609375 -10.75 5.390625 -10.75 C 4.222656 -10.75 3.359375 -10.304688 2.796875 -9.421875 C 2.234375 -8.546875 1.953125 -7.195312 1.953125 -5.375 C 1.953125 -3.5625 2.234375 -2.210938 2.796875 -1.328125 C 3.359375 -0.441406 4.21875 0 5.375 0 Z M 5.375 0 "/></g></g></g><g fill="#30525b" fill-opacity="1"><g transform="translate(247.818265, 194.049993)"><g><path d="M 2.296875 0 L 2.296875 -0.15625 L 2.84375 -0.15625 C 3.238281 -0.15625 3.515625 -0.234375 3.671875 -0.390625 C 3.828125 -0.554688 3.90625 -0.875 3.90625 -1.34375 L 3.90625 -10.546875 L 2.15625 -10.546875 C 1.5625 -10.546875 1.15625 -10.4375 0.9375 -10.21875 C 0.71875 -10 0.597656 -9.585938 0.578125 -8.984375 L 0.53125 -8.265625 L 0.375 -8.265625 L 0.46875 -10.734375 L 8.390625 -10.734375 L 8.484375 -8.265625 L 8.328125 -8.265625 L 8.28125 -8.984375 C 8.25 -9.585938 8.128906 -10 7.921875 -10.21875 C 7.710938 -10.4375 7.3125 -10.546875 6.71875 -10.546875 L 4.921875 -10.546875 L 4.921875 -1.34375 C 4.921875 -0.875 4.992188 -0.554688 5.140625 -0.390625 C 5.296875 -0.234375 5.578125 -0.15625 5.984375 -0.15625 L 6.53125 -0.15625 L 6.53125 0 Z M 2.296875 0 "/></g></g></g><g fill="#30525b" fill-opacity="1"><g transform="translate(262.321144, 194.049993)"><g><path d="M 5.375 0.15625 C 4.363281 0.15625 3.519531 -0.0664062 2.84375 -0.515625 C 2.175781 -0.972656 1.675781 -1.613281 1.34375 -2.4375 C 1.019531 -3.269531 0.859375 -4.253906 0.859375 -5.390625 C 0.859375 -6.523438 1.023438 -7.503906 1.359375 -8.328125 C 1.691406 -9.148438 2.191406 -9.78125 2.859375 -10.21875 C 3.535156 -10.664062 4.378906 -10.890625 5.390625 -10.890625 C 6.910156 -10.890625 8.039062 -10.394531 8.78125 -9.40625 C 9.53125 -8.425781 9.90625 -7.082031 9.90625 -5.375 C 9.90625 -4.269531 9.738281 -3.300781 9.40625 -2.46875 C 9.070312 -1.644531 8.570312 -1 7.90625 -0.53125 C 7.238281 -0.0703125 6.394531 0.15625 5.375 0.15625 Z M 5.375 0 C 6.582031 0 7.453125 -0.441406 7.984375 -1.328125 C 8.523438 -2.210938 8.796875 -3.5625 8.796875 -5.375 C 8.796875 -7.195312 8.53125 -8.546875 8 -9.421875 C 7.476562 -10.304688 6.609375 -10.75 5.390625 -10.75 C 4.222656 -10.75 3.359375 -10.304688 2.796875 -9.421875 C 2.234375 -8.546875 1.953125 -7.195312 1.953125 -5.375 C 1.953125 -3.5625 2.234375 -2.210938 2.796875 -1.328125 C 3.359375 -0.441406 4.21875 0 5.375 0 Z M 5.375 0 "/></g></g></g><g fill="#30525b" fill-opacity="1"><g transform="translate(278.731993, 194.049993)"><g><path d="M 0.640625 0 L 0.640625 -0.15625 L 1.1875 -0.15625 C 1.582031 -0.15625 1.851562 -0.234375 2 -0.390625 C 2.15625 -0.554688 2.234375 -0.875 2.234375 -1.34375 L 2.234375 -9.421875 C 2.234375 -9.867188 2.15625 -10.171875 2 -10.328125 C 1.851562 -10.492188 1.582031 -10.578125 1.1875 -10.578125 L 0.640625 -10.578125 L 0.640625 -10.734375 L 2.96875 -10.734375 L 9 -1.546875 L 9 -9.390625 C 9 -9.859375 8.921875 -10.171875 8.765625 -10.328125 C 8.617188 -10.492188 8.347656 -10.578125 7.953125 -10.578125 L 7.4375 -10.578125 L 7.4375 -10.734375 L 10.734375 -10.734375 L 10.734375 -10.578125 L 10.21875 -10.578125 C 9.820312 -10.578125 9.546875 -10.492188 9.390625 -10.328125 C 9.234375 -10.171875 9.15625 -9.859375 9.15625 -9.390625 L 9.15625 0 L 8.859375 0 L 2.390625 -9.796875 L 2.390625 -1.34375 C 2.390625 -0.875 2.460938 -0.554688 2.609375 -0.390625 C 2.765625 -0.234375 3.039062 -0.15625 3.4375 -0.15625 L 3.953125 -0.15625 L 3.953125 0 Z M 0.640625 0 "/></g></g></g></svg>